<svg xmlns="http://www.w3.org/2000/svg" viewBox="0 0 120 120" width="120" height="120" role="img" aria-label="">
  <!-- fins -->
  <path d="M42 76 L24 96 l20 -2 Z" fill="#12B9A6"/>
  <path d="M78 76 L96 96 l-20 -2 Z" fill="#12B9A6"/>
  <!-- body -->
  <path d="M60 8 c14 14 21 32 21 50 l-6 32 h-30 l-6 -32 c0-18 7-36 21-50 Z" fill="#F4F7FC"/>
  <path d="M60 8 c-14 14 -21 32 -21 50 l6 32 h15 Z" fill="#DCE6F2"/>
  <!-- window -->
  <circle cx="60" cy="46" r="12" fill="#39B4E8"/>
  <circle cx="60" cy="46" r="8" fill="#BFE3F7"/>
  <path d="M54 41 a8 8 0 0 1 6 -3 q-5 1 -6 5 Z" fill="#fff"/>
  <!-- stripe -->
  <rect x="45" y="68" width="30" height="7" rx="3.5" fill="#F2557F"/>
  <!-- flame -->
  <path d="M50 90 h20 q-4 16 -10 24 q-6 -8 -10 -24 Z" fill="#FFC94D"/>
  <path d="M55 90 h10 q-2 11 -5 17 q-3 -6 -5 -17 Z" fill="#F2703A"/>
</svg>
